# xmcd
#
# Track frame offsets:
#	150
#	11047
#	25512
#	34452
#	50642
#	62632
#	80335
#	89940
#	104722
#	114470
#
# Disc length: 1763 seconds
#
# Revision: 0
# Processed by: cddbd v1.5.1PL2 Copyright (c) Steve Scherf et al.
# Submitted via: audiograbber 1.83.01
#
DISCID=8706e10a
DTITLE=Various Artist - Nashville's Greatest Christmas Hits Vol II
DYEAR=1988
DGENRE=Country
TTITLE0=Willie Nelson  - Pretty Paper
TTITLE1=Tammy Wynette - It Came Upon A Midnight Clear 
TTITLE2=Charlie Rich - O Holy Night 
TTITLE3=B.J. Thomas - The First Noel
TTITLE4=Chet Atkins C.G.P. - Let It Snow, Let It Snow, Let It Snow 
TTITLE5=Allelulia Chorus-Larry Gatlin and The Gatlin Bros Band - Messiah
TTITLE6=Lynn Anderson - Soon It Will Be Christmas Day 
TTITLE7=Micky Gilley - I'll Be Home For Christmas 
TTITLE8=Slim Whitman - Winter Wonderland 
TTITLE9=Ray Price - The Little Drummer Boy 
EXTD=
EXTT0=
EXTT1=
EXTT2=
EXTT3=
EXTT4=
EXTT5=
EXTT6=
EXTT7=
EXTT8=
EXTT9=
PLAYORDER=
